<svg width="615" height="972" viewBox="0 0 615 972" fill="none" xmlns="http://www.w3.org/2000/svg">
<path d="M216.497 191.005C216.497 191.005 216.157 181.525 213.787 172.725C211.417 163.925 209.386 158.505 209.386 158.505L275.386 188.965C275.386 188.965 278.097 195.055 284.187 197.085C290.277 199.115 265.906 250.905 265.906 250.905L190.767 240.415L216.497 191.005Z" fill="url(#paint0_linear)"/>
<path d="M203.807 138.545C201.217 136.285 197.247 137.285 193.997 138.415C193.357 138.635 192.687 138.875 192.227 139.365C191.547 140.065 191.427 141.125 191.417 142.105C191.297 149.195 194.747 155.805 198.307 161.945C199.357 163.765 200.507 165.645 202.317 166.715C205.137 168.385 208.907 167.565 211.537 165.605C214.167 163.645 215.917 160.755 217.607 157.935L203.807 138.545Z" fill="url(#paint1_linear)"/>
<path d="M189.407 88.465C189.957 95.815 192.797 103.465 194.457 111.305C196.427 120.615 198.947 129.825 202.127 138.805C208.357 156.415 217.127 172.905 228.357 187.835C236.037 198.045 245.347 207.875 257.547 211.695C258.897 212.115 260.317 212.465 261.727 212.315C263.587 212.105 265.247 211.045 266.687 209.845C273.307 204.315 276.397 195.735 279.127 187.555C286.367 165.835 293.117 143.645 294.167 120.775C294.387 115.925 294.357 111.035 293.627 106.235C292.607 99.515 290.257 93.0751 287.647 86.7951C284.307 78.7451 280.357 70.6352 273.787 64.9152C267.547 59.4752 259.437 56.655 251.327 55.005C243.667 53.445 235.707 52.8253 228.027 54.3053C216.987 56.4353 204.107 60.9753 196.017 69.5153C190.277 75.5253 188.917 81.875 189.407 88.465Z" fill="#FFCFCB"/>
<path d="M264.526 170.285C264.026 170.285 263.536 170.025 263.266 169.545C262.876 168.855 263.126 167.975 263.816 167.585C265.966 166.385 268.016 164.975 269.906 163.415C271.226 162.315 272.676 160.985 273.366 159.345C274.726 156.105 273.046 152.295 271.206 148.665L264.106 134.665C262.276 131.055 260.006 126.565 260.496 121.835C260.576 121.045 261.266 120.445 262.076 120.555C262.866 120.635 263.436 121.345 263.356 122.135C262.956 126.035 264.926 129.925 266.666 133.375L273.766 147.375C275.816 151.415 277.846 156.105 276.006 160.475C275.076 162.685 273.326 164.325 271.736 165.645C269.716 167.315 267.516 168.825 265.216 170.105C265.006 170.225 264.766 170.285 264.526 170.285Z" fill="#D77E8E"/>
<path d="M228.387 115.404C234.597 117.244 244.647 109.414 240.827 114.954C241.247 115.204 235.457 120.504 230.627 120.834C228.927 121.374 224.397 122.414 221.987 120.644C216.747 116.344 226.917 116.194 228.387 115.404Z" fill="#750114"/>
<path d="M273.507 99.2451C276.947 98.3251 280.447 98.1449 283.977 99.2749C284.427 99.4349 284.896 99.6351 285.156 99.9951C285.706 100.725 285.037 101.965 283.947 102.605C282.867 103.255 281.567 103.455 280.347 103.665C278.037 104.065 275.747 104.555 273.537 105.175C271.107 106.105 265.637 107.555 265.227 103.815C265.297 101.195 271.737 100.195 273.507 99.2451Z" fill="#750114"/>
<path d="M241.406 127.944C240.556 127.264 239.136 127.484 238.526 128.384C237.916 129.284 238.236 130.684 239.186 131.224C239.616 131.474 240.117 131.544 240.607 131.624C241.527 131.764 242.566 131.864 243.296 131.294C244.386 130.444 243.977 128.524 242.807 127.794C241.637 127.064 240.097 127.255 238.817 127.765" fill="#000614"/>
<path d="M275.716 113.465C274.806 113.955 273.876 114.485 273.296 115.335C272.726 116.185 272.636 117.465 273.396 118.165C273.726 118.465 274.157 118.625 274.597 118.695C276.187 118.965 278.006 117.915 278.186 116.315C278.366 114.715 276.286 113.255 275.006 114.235" fill="#000614"/>
<path d="M255.917 194.795C255.187 194.795 254.557 194.665 254.077 194.385C253.387 193.985 253.157 193.105 253.557 192.415C253.957 191.725 254.837 191.495 255.527 191.895C257.137 192.645 266.287 188.435 267.927 186.195C268.397 185.565 269.297 185.415 269.937 185.885C270.577 186.355 270.717 187.255 270.247 187.895C268.657 190.065 260.397 194.795 255.917 194.795Z" fill="#D77E8E"/>
<path d="M245.087 160.695C241.387 160.695 237.687 159.285 234.417 156.585C230.347 153.215 227.427 148.215 226.197 142.515C223.637 130.615 229.307 119.255 238.847 117.195C243.537 116.185 248.417 117.525 252.587 120.985C256.657 124.355 259.577 129.355 260.807 135.055C263.367 146.955 257.697 158.315 248.147 160.375C247.147 160.585 246.117 160.695 245.087 160.695ZM241.907 119.735C241.087 119.735 240.267 119.815 239.457 119.995C231.467 121.715 226.777 131.535 229.007 141.895C230.097 146.975 232.677 151.405 236.247 154.365C239.727 157.245 243.737 158.385 247.547 157.555C255.537 155.835 260.227 146.015 257.997 135.655C256.907 130.575 254.327 126.145 250.757 123.185C248.027 120.925 244.947 119.735 241.907 119.735Z" fill="#5139B5"/>
<path d="M286.547 148.275C283.007 148.275 279.447 146.805 276.297 143.985C272.477 140.565 269.696 135.555 268.476 129.875C267.246 124.185 267.717 118.475 269.797 113.795C271.947 108.955 275.536 105.765 279.926 104.825C284.306 103.895 288.897 105.305 292.847 108.835C296.667 112.245 299.446 117.265 300.666 122.945C303.226 134.845 298.096 146.085 289.226 148.005C288.326 148.185 287.437 148.275 286.547 148.275ZM282.567 107.404C281.877 107.404 281.196 107.475 280.516 107.625C277.056 108.375 274.176 110.975 272.416 114.945C270.586 119.085 270.186 124.165 271.276 129.265C272.376 134.365 274.836 138.825 278.206 141.845C281.446 144.745 285.147 145.915 288.607 145.185C295.927 143.605 300.077 133.895 297.847 123.545C296.747 118.445 294.286 113.975 290.916 110.965C288.306 108.635 285.407 107.404 282.567 107.404Z" fill="#5139B5"/>
<path d="M260.566 132.644L258.156 131.084C261.506 125.904 267.686 126.985 270.486 128.265L269.286 130.874C269.036 130.764 263.396 128.274 260.566 132.644Z" fill="#5139B5"/>
<path d="M194.777 154.974C191.447 154.664 188.447 152.084 187.327 148.544C186.187 144.944 187.097 141.384 188.057 139.024C189.137 136.404 190.607 134.464 192.457 133.264C197.197 130.174 203.287 132.334 207.737 133.894C214.497 136.274 221.507 138.064 228.567 139.204L228.107 142.044C220.867 140.884 213.697 139.054 206.777 136.614C202.677 135.164 197.567 133.364 194.017 135.674C192.667 136.554 191.557 138.044 190.707 140.114C189.597 142.824 189.367 145.504 190.057 147.674C190.817 150.084 192.867 151.914 195.027 152.114L194.777 154.974Z" fill="#5139B5"/>
<path d="M297.577 91.2948C298.387 88.5548 299.897 86.3249 300.407 83.4149C300.917 80.5049 299.887 76.3548 297.517 75.2948C296.567 74.8748 295.597 75.0249 294.647 74.6449C292.087 73.6049 290.897 69.2448 291.187 66.0048C291.477 62.7648 292.677 59.9048 292.657 56.5648C292.617 49.9748 286.807 43.2449 281.987 44.1849C280.667 44.4449 279.337 45.1547 277.987 44.4247C277.267 44.0447 276.657 43.3048 276.087 42.5648C273.147 38.7448 270.577 34.2349 267.097 31.4349C263.607 28.6349 258.697 28.3447 257.177 32.4847C247.707 18.4847 215.637 -4.5251 212.267 2.4049C217.317 6.4049 224.427 21.9047 226.477 22.6947C220.217 25.2347 212.097 12.0848 208.057 8.33483C201.157 1.93483 190.337 -0.305088 181.537 0.664912C177.117 1.14491 172.487 2.58495 169.147 5.95495C164.867 10.285 165.917 14.795 164.457 20.205C163.847 22.475 162.117 24.3547 160.247 25.4447C155.077 28.4747 148.697 27.3248 143.587 30.8348C136.357 35.8048 132.847 44.0748 135.847 53.2548C138.177 60.3748 143.357 65.8346 148.487 70.8646C152.037 74.3546 155.867 77.8948 160.527 79.0048C160.137 73.5348 151.647 72.885 150.627 67.515C150.477 66.735 150.507 65.9149 150.227 65.1849C148.957 61.9949 142.737 66.7147 141.137 67.4847C138.897 68.5647 136.677 69.605 134.907 67.245C134.517 66.735 133.827 71.805 134.227 72.785C135.127 74.945 137.147 76.7347 138.777 78.1947C142.777 81.7547 146.207 85.7949 146.177 91.8749C146.107 106.385 155.867 102.405 160.627 115.935C164.787 127.765 171.357 118.565 176.267 121.495C180.647 124.115 183.607 131.745 188.157 132.555C194.817 133.735 201.147 131.355 206.307 127.135C211.467 122.925 215.567 116.955 219.227 110.625C221.787 106.195 224.317 101.385 228.367 99.3549C233.377 96.8448 235.847 98.7049 241.607 100.685C254.617 105.145 264.917 94.8848 268.077 82.3148C268.867 79.1748 270.387 71.325 268.417 68.475C271.927 73.545 271.327 77.9851 270.917 83.5951C270.597 88.0051 269.577 91.3648 265.887 98.8348C273.127 90.0448 277.727 82.595 279.337 69.055C282.627 73.265 281.267 79.9449 283.327 85.2049C283.877 86.6049 284.647 87.8549 285.417 89.1049C286.517 90.8748 287.607 92.6547 288.707 94.4247C290.037 96.5747 295.657 106.575 297.427 104.595C298.297 103.615 297.197 99.625 297.087 98.225C296.867 95.785 296.937 93.4548 297.577 91.2948Z" fill="url(#paint2_linear)"/>
<path d="M184.977 86.3252C179.557 86.2552 173.777 83.2052 169.277 78.0352C174.447 82.5152 180.697 84.2651 186.017 82.7251C185.347 82.9851 184.687 83.2451 184.017 83.5151" fill="#FF5946"/>
<path d="M255.257 26.4844C253.297 21.7444 250.137 17.6545 246.507 15.1445C249.157 15.6345 251.947 16.1947 254.287 18.3447C256.627 20.4947 258.257 24.7944 257.027 27.5244C256.257 27.5044 255.437 26.8047 255.047 25.8447" fill="#FF5946"/>
<path d="M144.897 103.265C144.067 104.675 145.047 106.544 146.327 107.524C148.267 109.024 149.767 110.164 151.467 111.884C152.577 113.004 153.947 114.704 154.487 111.674C155.287 107.244 147.017 105.785 144.897 103.265Z" fill="#FF5946"/>
<path d="M134.547 64.3848C134.427 63.9448 134.427 63.4751 134.407 63.0151C134.347 61.7551 134.107 60.515 133.677 59.335C134.847 59.915 136.097 60.5849 136.627 61.8149C137.117 62.9449 137.097 63.8651 137.977 64.7651C138.677 65.4851 139.597 65.3947 139.047 66.6147C137.927 69.1147 134.907 65.7348 134.547 64.3848Z" fill="#FF5946"/>
<path d="M194.587 113.204C188.457 113.204 182.717 110.844 178.877 106.644C178.347 106.064 178.387 105.154 178.967 104.614C179.557 104.084 180.457 104.114 180.997 104.704C184.777 108.834 190.747 110.894 196.957 110.194C202.307 109.594 207.897 107.004 213.137 102.684C214.867 101.254 216.747 99.4842 217.547 97.2042C217.937 96.0942 218.067 94.8641 218.207 93.5641C218.297 92.7541 218.387 91.9441 218.527 91.1441C219.567 85.5441 223.597 80.7041 228.797 78.8341C232.267 77.5841 235.897 77.6642 239.397 77.7442C240.457 77.7642 241.517 77.7943 242.557 77.7843C247.837 77.7243 251.517 76.3043 253.487 73.5743C255.667 70.5543 255.537 66.2943 255.197 61.8243C255.087 60.3843 254.877 58.9842 254.107 58.4542C253.447 58.0042 253.287 57.1142 253.737 56.4542C254.187 55.8042 255.077 55.6341 255.737 56.0841C257.747 57.4641 257.957 60.1641 258.067 61.6041C258.357 65.4041 258.797 71.1343 255.827 75.2643C253.297 78.7743 248.847 80.5842 242.607 80.6642C241.527 80.6742 240.437 80.6541 239.347 80.6241C235.947 80.5441 232.747 80.4741 229.787 81.5441C225.527 83.0841 222.227 87.0539 221.377 91.6739C221.247 92.4039 221.167 93.1441 221.087 93.8741C220.937 95.2841 220.777 96.7342 220.277 98.1642C219.247 101.104 217.017 103.224 214.977 104.904C209.307 109.574 203.197 112.394 197.297 113.054C196.377 113.154 195.477 113.204 194.587 113.204Z" fill="#ED310B"/>
<path d="M189.866 61.8551C186.526 61.8551 183.086 60.265 180.726 57.485C178.096 54.385 176.766 49.9451 177.076 45.3151C177.126 44.5251 177.786 43.8853 178.606 43.9753C179.396 44.0253 179.996 44.715 179.946 45.505C179.686 49.405 180.766 53.0852 182.916 55.6252C185.216 58.3252 188.776 59.585 191.796 58.715C194.236 58.025 196.256 56.1249 198.396 54.1149C200.926 51.7349 203.546 49.275 207.116 48.695C211.786 47.915 215.816 50.6754 219.696 53.3254C223.426 55.8754 226.956 58.2852 230.546 57.1852C232.886 56.4752 234.636 54.4153 236.476 52.2253C238.176 50.2153 239.926 48.1452 242.336 46.8952C245.676 45.1652 249.826 45.4354 252.926 47.5954C255.996 49.7354 257.806 53.5752 257.536 57.3952C257.476 58.1852 256.786 58.815 256.006 58.735C255.216 58.675 254.616 57.9952 254.676 57.2052C254.866 54.4152 253.506 51.5052 251.286 49.9552C249.086 48.4252 246.026 48.2152 243.666 49.4552C241.766 50.4352 240.266 52.2151 238.686 54.0851C236.656 56.4951 234.546 58.9752 231.396 59.9352C226.486 61.4252 222.216 58.515 218.096 55.695C214.526 53.255 211.136 50.9751 207.596 51.5251C204.896 51.9651 202.706 54.0252 200.386 56.2052C198.086 58.3652 195.716 60.595 192.596 61.485C191.696 61.735 190.786 61.8551 189.866 61.8551Z" fill="#ED310B"/>
<path d="M263.177 51.2543C262.787 51.2543 262.397 51.0945 262.107 50.7845C261.577 50.1945 261.617 49.2843 262.207 48.7543C263.277 47.7843 263.807 46.2943 263.697 44.5443C263.547 42.2043 262.317 39.8942 260.547 38.6542C257.687 36.6442 253.567 36.2445 248.297 37.4745C246.967 37.7845 245.647 38.1645 244.327 38.5345C241.157 39.4345 237.877 40.3644 234.457 40.4344C228.467 40.5644 222.827 37.9542 217.447 35.4442C212.227 33.0142 207.287 30.7142 201.987 30.7142C201.967 30.7142 201.957 30.7142 201.947 30.7142L201.317 30.7245C199.837 30.7345 198.157 30.7743 196.667 29.8343C194.127 28.2343 193.897 25.2346 193.687 22.5946C193.597 21.4746 193.517 20.4145 193.287 19.4945C192.857 17.7545 191.667 16.2545 189.947 15.2445C187.947 14.0845 185.496 13.7446 183.366 14.3246C179.566 15.3846 176.177 18.9043 174.297 23.7543C174.007 24.4943 173.177 24.8646 172.437 24.5746C171.697 24.2846 171.326 23.4542 171.616 22.7142C173.816 17.0242 177.927 12.8446 182.597 11.5546C185.457 10.7546 188.736 11.2145 191.386 12.7645C193.776 14.1645 195.447 16.3043 196.067 18.7943C196.357 19.9543 196.447 21.1844 196.547 22.3744C196.747 24.9944 196.967 26.6344 198.197 27.4144C198.967 27.9044 200.077 27.8841 201.277 27.8641L201.947 27.8544C201.967 27.8544 201.987 27.8544 201.997 27.8544C207.937 27.8544 213.387 30.3944 218.667 32.8544C223.987 35.3344 228.986 37.6746 234.406 37.5746C237.456 37.5146 240.417 36.6745 243.547 35.7845C244.907 35.3945 246.276 35.0144 247.646 34.6844C253.736 33.2644 258.637 33.8043 262.197 36.3143C264.687 38.0643 266.367 41.1544 266.567 44.3744C266.727 47.0044 265.866 49.3244 264.136 50.8944C263.866 51.1344 263.527 51.2543 263.177 51.2543Z" fill="#ED310B"/>
<g opacity="0.75">
<g opacity="0.75">
<path opacity="0.75" d="M235.876 70.1554C235.566 70.1554 235.277 69.9454 235.187 69.6354C235.077 69.2554 235.297 68.8557 235.677 68.7457C239.217 67.7357 242.217 65.0356 243.707 61.5456C243.867 61.1756 244.277 61.0057 244.647 61.1657C245.007 61.3157 245.177 61.7456 245.027 62.1056C243.367 65.9956 240.017 68.9956 236.067 70.1256C236.017 70.1456 235.946 70.1554 235.876 70.1554Z" fill="#FEA246"/>
</g>
<g opacity="0.75">
<path opacity="0.75" d="M220.837 81.4746C220.667 81.4746 220.497 81.4144 220.367 81.2944C220.067 81.0344 220.037 80.5747 220.307 80.2847L228.607 70.8545C228.867 70.5545 229.317 70.5244 229.617 70.7944C229.917 71.0544 229.947 71.5147 229.677 71.8047L221.377 81.2344C221.237 81.3944 221.037 81.4746 220.837 81.4746Z" fill="#FEA246"/>
</g>
<g opacity="0.75">
<path opacity="0.75" d="M211.427 95.3156C211.277 95.3156 211.127 95.2755 211.007 95.1755C210.687 94.9455 210.617 94.4855 210.847 94.1755C212.807 91.4955 214.387 88.5455 215.557 85.4055C215.697 85.0355 216.107 84.8456 216.487 84.9856C216.857 85.1256 217.047 85.5355 216.907 85.9055C215.687 89.1655 214.047 92.2358 212.007 95.0158C211.867 95.2158 211.647 95.3156 211.427 95.3156Z" fill="#FEA246"/>
</g>
<g opacity="0.75">
<path opacity="0.75" d="M191.287 85.8752C190.437 85.8752 189.637 85.555 189.077 84.965C188.807 84.675 188.817 84.225 189.107 83.945C189.397 83.665 189.847 83.685 190.127 83.965C190.477 84.335 191.027 84.4849 191.607 84.4049C192.207 84.3049 192.707 83.965 192.937 83.485C193.107 83.125 193.547 82.9752 193.897 83.1452C194.257 83.3152 194.407 83.7451 194.237 84.1051C193.797 85.0151 192.907 85.6554 191.837 85.8254C191.637 85.8554 191.457 85.8752 191.287 85.8752Z" fill="#FEA246"/>
</g>
<g opacity="0.75">
<path opacity="0.75" d="M175.107 82.5353C175.027 82.5353 174.937 82.5252 174.857 82.4952C172.517 81.6152 170.307 80.2252 168.487 78.4552C168.207 78.1752 168.197 77.7252 168.467 77.4352C168.737 77.1552 169.197 77.1451 169.487 77.4151C171.167 79.0451 173.197 80.3249 175.357 81.1349C175.727 81.2749 175.917 81.685 175.777 82.065C175.667 82.355 175.397 82.5353 175.107 82.5353Z" fill="#FEA246"/>
</g>
<g opacity="0.75">
<path opacity="0.75" d="M156.637 69.9356C156.447 69.9356 156.257 69.8556 156.117 69.7056C154.717 68.2056 153.577 66.4953 152.737 64.6153C152.577 64.2553 152.737 63.8256 153.097 63.6656C153.457 63.4956 153.887 63.6554 154.047 64.0254C154.827 65.7654 155.877 67.3456 157.167 68.7256C157.437 69.0156 157.427 69.4757 157.137 69.7457C156.987 69.8757 156.807 69.9356 156.637 69.9356Z" fill="#FEA246"/>
</g>
<g opacity="0.75">
<path opacity="0.75" d="M232.227 50.8557C232.177 50.8557 232.127 50.8457 232.077 50.8357L224.797 49.2356C224.407 49.1556 224.167 48.7657 224.247 48.3757C224.327 47.9857 224.717 47.7459 225.107 47.8259L232.387 49.4255C232.777 49.5055 233.017 49.8959 232.937 50.2859C232.857 50.6259 232.557 50.8557 232.227 50.8557Z" fill="#FEA246"/>
</g>
<g opacity="0.75">
<path opacity="0.75" d="M217.047 46.8544C216.857 46.8544 216.667 46.7842 216.527 46.6342C214.637 44.6842 211.817 43.6843 209.167 43.9643C208.787 44.0043 208.417 43.7244 208.367 43.3344C208.327 42.9444 208.607 42.5844 208.997 42.5444C212.127 42.1744 215.327 43.3345 217.557 45.6445C217.837 45.9245 217.827 46.3845 217.537 46.6645C217.407 46.7945 217.227 46.8544 217.047 46.8544Z" fill="#FEA246"/>
</g>
<g opacity="0.75">
<path opacity="0.75" d="M193.637 50.5851C193.327 50.5851 193.047 50.3851 192.947 50.0851C192.827 49.7051 193.037 49.3052 193.417 49.1852C195.447 48.5452 197.287 47.235 198.587 45.485C198.827 45.175 199.277 45.1051 199.597 45.3351C199.917 45.5751 199.977 46.0253 199.747 46.3453C198.267 48.3353 196.167 49.8253 193.857 50.5553C193.777 50.5753 193.707 50.5851 193.637 50.5851Z" fill="#FEA246"/>
</g>
<g opacity="0.75">
<path opacity="0.75" d="M187.667 49.7347C187.557 49.7347 187.447 49.7046 187.337 49.6546C185.757 48.8446 184.457 47.495 183.697 45.845C183.527 45.485 183.687 45.0548 184.047 44.8948C184.407 44.7348 184.837 44.8849 185.007 45.2449C185.637 46.6049 186.707 47.7146 188.007 48.3846C188.357 48.5646 188.497 48.9948 188.317 49.3548C188.187 49.5948 187.927 49.7347 187.667 49.7347Z" fill="#FEA246"/>
</g>
<g opacity="0.75">
<path opacity="0.75" d="M175.177 39.1546C174.957 39.1546 174.727 39.0548 174.587 38.8548C173.707 37.6148 172.447 36.6549 171.047 36.1449C170.677 36.0049 170.477 35.5949 170.617 35.2249C170.757 34.8549 171.167 34.6648 171.537 34.7948C173.207 35.4048 174.707 36.545 175.757 38.015C175.987 38.335 175.917 38.785 175.587 39.015C175.467 39.105 175.327 39.1546 175.177 39.1546Z" fill="#FEA246"/>
</g>
<g opacity="0.75">
<path opacity="0.75" d="M157.717 38.8142C157.317 38.8142 156.907 38.7944 156.507 38.7644C156.107 38.7344 155.817 38.3842 155.857 37.9842C155.887 37.5842 156.257 37.2743 156.637 37.3343C158.807 37.5243 160.997 37.1441 162.987 36.2141C163.347 36.0541 163.777 36.2042 163.937 36.5642C164.107 36.9242 163.947 37.3544 163.587 37.5144C161.737 38.3744 159.727 38.8142 157.717 38.8142Z" fill="#FEA246"/>
</g>
<g opacity="0.75">
<path opacity="0.75" d="M148.237 41.2744C146.907 41.2744 145.577 40.6446 144.777 39.5146C144.547 39.1846 144.627 38.7446 144.947 38.5146C145.267 38.2846 145.717 38.3646 145.947 38.6846C146.737 39.8146 148.397 40.1844 149.557 39.4844C149.897 39.2844 150.337 39.3944 150.547 39.7344C150.747 40.0744 150.637 40.5146 150.297 40.7246C149.667 41.0946 148.947 41.2744 148.237 41.2744Z" fill="#FEA246"/>
</g>
</g>
<path d="M445.366 880.734L445.136 912.495L471.777 923.424L469.047 881.415L445.366 880.734Z" fill="url(#paint3_linear)"/>
<path d="M329.216 426.845C343.156 427.645 342.256 474.055 356.146 474.275C386.026 474.745 430.777 480.865 460.317 485.325C485.257 489.085 510.306 492.845 534.616 499.725C555.016 505.505 584.266 512.935 594.116 533.955C601.766 550.285 595.666 569.425 589.706 586.445C562.256 664.835 514.717 736.425 493.857 816.765C477.357 880.285 486.467 891.215 461.837 887.295C430.537 882.315 433.636 878.465 438.206 837.895C440.856 814.375 437.266 790.565 438.146 766.905C439.906 719.605 445.246 672.435 454.186 625.955C455.006 621.725 460.286 579.265 461.286 579.065C383.337 594.185 303.476 599.395 224.226 594.515C218.156 594.145 211.656 593.545 206.986 589.655C202.996 586.335 201.066 581.155 199.896 576.105C193.276 547.485 161.786 441.895 184.616 423.415C214.536 399.185 294.206 424.845 329.216 426.845Z" fill="url(#paint4_linear)"/>
<path d="M271.156 873.564L270.957 905.325L295.207 916.254L292.717 874.245L271.156 873.564Z" fill="url(#paint5_linear)"/>
<path d="M419.707 532.134C409.857 511.114 380.607 503.684 360.207 497.904C335.897 491.014 310.847 487.264 285.907 483.504C256.367 479.044 257.127 433.365 225.747 433.055C211.857 432.915 182.937 426.135 168.997 425.335C150.137 424.255 143.016 418.374 125.116 422.044C126.316 437.284 99.9666 538.185 123.757 561.975C157.527 595.745 221.007 595.795 265.107 596.875C271.447 597.025 280.357 595.595 286.187 597.595C285.567 606.545 281.477 615.335 279.787 624.145C270.847 670.625 265.507 717.795 263.747 765.095C262.867 788.745 266.447 812.565 263.807 836.085C259.237 876.655 256.137 880.504 287.437 885.484C312.067 889.404 302.957 878.475 319.457 814.955C340.317 734.625 387.857 663.034 415.307 584.634C421.257 567.594 427.357 548.464 419.707 532.134Z" fill="url(#paint6_linear)"/>
<path d="M457.737 913.694C454.467 912.894 451.367 911.224 449.147 908.694C447.807 907.174 446.817 905.375 445.587 903.765C444.357 902.155 442.787 900.675 440.827 900.165C440.127 899.985 439.367 899.934 438.687 900.174C437.477 900.604 436.737 901.905 436.587 903.185C436.447 904.465 436.787 905.745 437.147 906.985C437.967 909.805 438.917 912.635 440.517 915.105C442.107 917.575 444.407 919.695 447.227 920.555C449.957 921.385 452.887 920.984 455.727 920.674C459.137 920.304 462.577 920.075 465.917 919.305C468.207 918.785 470.467 917.995 472.487 916.785C473.177 916.375 476.427 914.545 475.837 913.345C475.067 911.795 467.887 913.985 466.517 914.145C463.577 914.455 460.597 914.394 457.737 913.694Z" fill="#0A0652"/>
<path d="M424.387 928.395C423.947 930.465 423.877 933.135 425.747 934.125C426.637 934.585 427.697 934.494 428.697 934.424C444.587 933.254 459.817 940.445 473.807 948.075C487.797 955.705 501.997 964.135 517.847 965.785C523.337 966.355 528.887 966.094 534.397 965.694C535.857 965.594 537.607 965.265 538.127 963.895C538.307 963.415 538.297 962.904 538.227 962.384C538.707 963.944 538.987 965.595 539.247 967.205C539.357 967.865 539.457 968.555 539.217 969.185C538.697 970.555 536.907 970.864 535.427 970.964C529.817 971.334 524.167 971.575 518.567 970.975C502.407 969.235 486.887 965.715 472.597 958.015C467.277 955.145 461.647 952.804 455.707 951.564C448.127 949.984 440.067 950.585 432.397 949.285C429.567 948.805 424.487 948.325 422.477 945.895C420.037 942.935 422.447 936.454 423.157 933.084C423.517 931.364 423.987 929.675 424.487 927.995C424.457 928.115 424.417 928.255 424.387 928.395Z" fill="#0A0652"/>
<path d="M438.487 899.864C439.967 904.084 441.607 908.414 444.727 911.614C448.417 915.394 453.797 917.155 459.077 917.455C463.507 917.715 467.917 917.055 472.297 916.245C471.597 914.565 470.987 912.845 470.507 911.095C469.737 908.275 469.347 905.115 470.297 902.455C470.077 899.945 470.417 897.444 471.917 895.484C472.507 894.714 473.497 894.014 474.387 894.404C474.757 894.564 475.037 894.895 475.287 895.205C477.267 897.615 479.567 899.965 481.247 902.605C482.407 904.425 483.207 906.475 484.327 908.335C487.727 913.955 491.787 919.235 495.077 924.895C497.817 928.835 500.677 932.755 504.247 935.975C510.617 941.725 518.837 944.915 526.837 948.015C529.967 949.225 533.257 950.555 535.307 953.225C537.187 955.675 537.707 958.865 538.167 961.915C538.187 962.065 538.217 962.224 538.237 962.384C538.297 962.894 538.317 963.415 538.137 963.895C537.617 965.265 535.867 965.584 534.407 965.694C528.897 966.094 523.357 966.355 517.857 965.785C502.007 964.135 487.807 955.705 473.817 948.075C459.827 940.445 444.597 933.254 428.707 934.424C427.707 934.494 426.647 934.595 425.757 934.125C423.887 933.145 423.957 930.465 424.397 928.395C424.427 928.255 424.467 928.115 424.497 927.975C426.757 917.645 431.607 907.894 438.487 899.864Z" fill="url(#paint7_linear)"/>
<path d="M492.607 938.505C491.657 938.505 490.757 938.384 489.907 938.134C489.337 937.964 489.007 937.375 489.167 936.805C489.327 936.235 489.927 935.905 490.497 936.065C491.817 936.445 493.357 936.445 495.067 936.045C496.657 935.675 498.237 935.024 499.757 934.384C500.317 934.144 500.897 933.905 501.197 933.535C501.577 933.075 502.257 933.004 502.717 933.384C503.177 933.764 503.247 934.444 502.867 934.904C502.227 935.694 501.317 936.075 500.587 936.375C498.977 937.045 497.317 937.735 495.547 938.145C494.527 938.395 493.547 938.505 492.607 938.505Z" fill="#ECF2FE"/>
<path d="M485.367 929.955C484.737 929.955 484.097 929.914 483.457 929.834C482.867 929.754 482.447 929.224 482.527 928.634C482.597 928.044 483.137 927.624 483.727 927.694C487.807 928.204 491.977 926.625 495.667 925.225C496.227 925.015 496.847 925.294 497.057 925.854C497.267 926.414 496.987 927.035 496.437 927.245C493.057 928.525 489.287 929.955 485.367 929.955Z" fill="#ECF2FE"/>
<path d="M476.447 920.485C475.437 920.485 474.447 920.375 473.517 920.165C472.937 920.035 472.577 919.455 472.707 918.875C472.837 918.295 473.427 917.935 473.997 918.065C476.007 918.525 478.317 918.385 480.687 917.665C482.617 917.075 484.577 916.144 487.037 914.634C487.547 914.314 488.207 914.485 488.517 914.985C488.827 915.495 488.667 916.155 488.157 916.465C485.527 918.075 483.417 919.085 481.307 919.725C479.657 920.225 478.017 920.485 476.447 920.485Z" fill="#ECF2FE"/>
<path d="M485.497 939.604C483.317 940.264 479.697 942.145 480.597 945.075C480.877 945.975 481.667 946.614 482.487 947.064C484.657 948.274 486.827 949.245 486.927 952.075C486.937 952.435 486.867 952.864 486.527 952.994C486.297 953.074 486.047 952.974 485.827 952.864C481.497 950.794 477.077 948.894 472.807 946.674C468.057 944.214 463.397 941.564 458.487 939.424C453.527 937.264 448.177 935.814 442.937 934.494C438.307 933.334 433.667 931.854 428.837 931.904C428.147 931.914 427.407 931.934 426.837 931.554C425.777 930.844 425.817 929.204 426.007 928.104C426.727 924.024 428.747 920.024 430.807 916.464C431.357 915.514 431.917 914.484 433.157 914.604C434.217 914.704 435.197 915.484 435.917 916.214C438.417 918.794 440.507 921.754 443.087 924.294C446.287 927.444 450.127 930.074 454.757 930.284C458.747 930.464 461.997 928.534 465.177 926.354C467.687 924.634 469.937 922.544 471.837 920.174C472.087 919.864 472.337 919.544 472.697 919.384C473.327 919.114 474.107 919.474 474.447 920.064C474.787 920.664 474.747 921.414 474.507 922.054C474.267 922.694 473.847 923.254 473.427 923.794C472.227 925.364 471.017 926.944 469.817 928.514C469.457 928.984 469.077 929.534 469.187 930.124C469.677 932.584 474.567 931.514 476.017 931.014C477.617 930.464 479.117 929.664 480.697 929.044C481.087 928.894 481.487 928.744 481.897 928.754C482.307 928.764 482.747 928.944 482.947 929.304C483.157 929.684 483.057 930.165 482.907 930.575C482.317 932.135 480.987 933.314 479.517 934.114C477.887 935.004 475.407 935.224 474.237 936.724C472.487 938.964 478.327 939.514 479.227 939.354C481.547 938.944 483.637 937.704 485.947 937.254C486.487 937.154 487.047 937.084 487.587 937.214C487.827 937.264 488.067 937.364 488.227 937.544C488.447 937.774 488.507 938.144 488.377 938.444C488.027 939.264 486.257 939.374 485.497 939.604Z" fill="#FFB900"/>
<path d="M284.717 906.045C281.447 905.245 278.347 903.575 276.127 901.045C274.787 899.525 273.797 897.724 272.567 896.114C271.337 894.504 269.767 893.025 267.807 892.515C267.107 892.335 266.347 892.285 265.667 892.525C264.457 892.955 263.717 894.255 263.567 895.535C263.427 896.815 263.767 898.095 264.127 899.335C264.947 902.155 265.897 904.985 267.497 907.455C269.087 909.925 271.387 912.044 274.207 912.904C276.937 913.734 279.867 913.335 282.707 913.025C286.117 912.655 289.557 912.424 292.897 911.654C295.187 911.124 297.447 910.344 299.467 909.134C300.157 908.724 303.407 906.894 302.817 905.694C302.047 904.144 294.867 906.335 293.497 906.495C290.557 906.815 287.577 906.745 284.717 906.045Z" fill="#0A0652"/>
<path d="M251.367 920.745C250.927 922.815 250.857 925.485 252.727 926.475C253.617 926.945 254.677 926.844 255.677 926.774C271.567 925.604 286.797 932.794 300.787 940.424C314.777 948.054 328.977 956.484 344.827 958.134C350.317 958.704 355.867 958.444 361.377 958.044C362.837 957.944 364.587 957.615 365.107 956.245C365.287 955.765 365.277 955.254 365.207 954.734C365.687 956.294 365.967 957.945 366.227 959.555C366.337 960.215 366.437 960.905 366.197 961.535C365.677 962.905 363.887 963.214 362.407 963.314C356.797 963.684 351.147 963.925 345.547 963.325C329.387 961.585 313.867 958.064 299.577 950.364C294.257 947.494 288.627 945.155 282.687 943.915C275.107 942.335 267.047 942.934 259.377 941.634C256.537 941.154 251.467 940.675 249.457 938.245C247.017 935.285 249.427 928.805 250.137 925.435C250.497 923.715 250.967 922.025 251.467 920.345C251.447 920.465 251.397 920.605 251.367 920.745Z" fill="#0A0652"/>
<path d="M265.467 892.225C266.947 896.445 268.587 900.775 271.707 903.975C275.397 907.755 280.777 909.515 286.057 909.815C290.487 910.075 294.897 909.415 299.277 908.605C298.577 906.925 297.967 905.205 297.487 903.455C296.717 900.635 296.327 897.474 297.277 894.814C297.057 892.304 297.397 889.805 298.897 887.845C299.487 887.075 300.477 886.375 301.367 886.765C301.737 886.925 302.017 887.254 302.267 887.564C304.247 889.975 306.547 892.324 308.227 894.964C309.387 896.784 310.187 898.834 311.307 900.694C314.707 906.314 318.767 911.594 322.057 917.254C324.797 921.194 327.657 925.115 331.227 928.335C337.597 934.085 345.817 937.275 353.817 940.375C356.947 941.585 360.237 942.915 362.287 945.585C364.167 948.035 364.687 951.224 365.147 954.274C365.167 954.424 365.197 954.585 365.217 954.745C365.277 955.255 365.297 955.774 365.117 956.254C364.597 957.624 362.847 957.945 361.387 958.055C355.877 958.455 350.337 958.715 344.837 958.145C328.987 956.495 314.787 948.065 300.797 940.435C286.807 932.805 271.577 925.615 255.687 926.785C254.687 926.855 253.627 926.954 252.737 926.484C250.867 925.504 250.937 922.824 251.377 920.754C251.407 920.614 251.447 920.475 251.477 920.335C253.737 909.995 258.587 900.245 265.467 892.225Z" fill="url(#paint8_linear)"/>
<path d="M319.587 930.864C318.637 930.864 317.737 930.744 316.887 930.494C316.317 930.324 315.987 929.734 316.147 929.164C316.317 928.594 316.907 928.264 317.477 928.424C318.797 928.804 320.337 928.804 322.047 928.404C323.627 928.044 325.197 927.384 326.727 926.754C327.297 926.514 327.877 926.274 328.177 925.894C328.557 925.434 329.237 925.364 329.697 925.744C330.157 926.124 330.227 926.804 329.847 927.264C329.197 928.054 328.297 928.434 327.567 928.744C325.947 929.414 324.287 930.104 322.527 930.514C321.517 930.744 320.527 930.864 319.587 930.864Z" fill="#ECF2FE"/>
<path d="M312.357 922.305C311.717 922.305 311.087 922.264 310.437 922.184C309.847 922.104 309.427 921.564 309.507 920.984C309.577 920.394 310.107 919.974 310.717 920.044C314.787 920.554 318.967 918.975 322.657 917.575C323.207 917.365 323.837 917.645 324.047 918.205C324.257 918.765 323.977 919.385 323.427 919.595C320.037 920.875 316.277 922.305 312.357 922.305Z" fill="#ECF2FE"/>
<path d="M312.477 931.964C310.297 932.624 306.677 934.504 307.577 937.434C307.857 938.334 308.647 938.974 309.467 939.424C311.637 940.634 313.807 941.604 313.907 944.434C313.917 944.794 313.847 945.224 313.507 945.354C313.277 945.434 313.027 945.334 312.807 945.224C308.477 943.154 304.057 941.254 299.787 939.034C295.037 936.574 290.377 933.924 285.467 931.784C280.507 929.624 275.157 928.174 269.917 926.854C265.287 925.694 260.647 924.214 255.817 924.264C255.127 924.274 254.387 924.294 253.817 923.914C252.757 923.204 252.797 921.564 252.987 920.464C253.707 916.384 255.727 912.385 257.787 908.825C258.337 907.875 258.897 906.844 260.137 906.964C261.197 907.064 262.177 907.845 262.897 908.575C265.397 911.155 267.487 914.114 270.067 916.654C273.267 919.804 277.107 922.434 281.737 922.644C285.727 922.824 288.977 920.894 292.157 918.714C294.667 916.994 296.917 914.904 298.817 912.534C299.067 912.224 299.317 911.904 299.677 911.744C300.307 911.474 301.087 911.834 301.427 912.424C301.767 913.014 301.727 913.774 301.487 914.414C301.247 915.054 300.827 915.614 300.407 916.154C299.207 917.724 297.997 919.304 296.797 920.874C296.437 921.344 296.057 921.894 296.167 922.484C296.657 924.944 301.547 923.874 302.997 923.374C304.597 922.824 306.097 922.024 307.677 921.404C308.067 921.254 308.467 921.104 308.877 921.114C309.297 921.124 309.727 921.304 309.927 921.664C310.137 922.044 310.037 922.524 309.887 922.934C309.297 924.494 307.967 925.674 306.497 926.474C304.867 927.364 302.387 927.584 301.217 929.084C299.467 931.324 305.307 931.874 306.207 931.714C308.527 931.304 310.617 930.064 312.927 929.614C313.467 929.514 314.027 929.445 314.567 929.575C314.807 929.625 315.047 929.724 315.207 929.904C315.427 930.134 315.487 930.504 315.357 930.804C315.007 931.624 313.237 931.724 312.477 931.964Z" fill="#FFB900"/>
<path d="M302.747 912.835C301.737 912.835 300.747 912.725 299.817 912.515C299.237 912.385 298.877 911.805 299.007 911.225C299.137 910.645 299.717 910.275 300.297 910.415C302.307 910.875 304.617 910.735 306.987 910.015C308.917 909.425 310.877 908.495 313.337 906.985C313.847 906.665 314.507 906.835 314.817 907.335C315.127 907.845 314.967 908.505 314.457 908.815C311.827 910.425 309.707 911.435 307.607 912.075C305.957 912.585 304.317 912.835 302.747 912.835Z" fill="#ECF2FE"/>
<path d="M337.666 367.965C334.166 352.955 333.366 338.255 336.346 323.105C338.486 312.225 340.146 301.245 342.646 290.445C345.166 279.555 350.206 270.105 353.366 259.545C358.666 241.835 349.536 228.075 334.666 218.635C330.516 216.005 326.126 213.745 321.656 211.705C309.656 206.245 297.196 202.925 285.536 197.095C276.056 192.355 287.566 228.235 255.076 235.005C222.586 241.775 213.106 206.575 216.486 191.005C189.646 186.865 163.416 184.535 136.286 186.075C134.776 186.165 133.206 186.265 131.866 186.965C130.726 187.565 129.846 188.555 129.016 189.545C117.206 203.635 112.666 221.625 109.436 239.315C105.286 262.035 103.276 285.235 104.846 308.325C106.326 330.085 112.336 351.175 118.726 371.925C121.926 382.315 125.306 392.675 128.206 403.155C129.326 407.205 130.576 423.045 136.166 423.565C192.686 428.765 249.646 432.645 257.106 433.355C271.326 434.705 319.046 434.445 349.326 426.475C358.626 424.015 346.096 397.445 344.536 392.675C341.896 384.535 339.606 376.285 337.666 367.965Z" fill="url(#paint9_linear)"/>
<g opacity="0.29">
<g opacity="0.29">
<path opacity="0.29" d="M254.647 281.715C251.347 281.715 248.047 281.375 244.807 281.035L243.177 280.865C234.877 280.025 226.347 278.065 217.087 274.885C200.297 269.115 184.487 260.485 169.197 252.145L167.617 251.285C140.727 236.625 116.087 245.245 89.9966 254.385C86.0266 255.775 82.0467 257.175 78.0367 258.485C77.2867 258.745 76.4666 258.325 76.2266 257.565C75.9766 256.805 76.3865 255.995 77.1465 255.755C81.1465 254.445 85.1067 253.055 89.0567 251.665C115.767 242.315 140.987 233.475 168.997 248.755L170.577 249.615C185.767 257.905 201.467 266.465 218.027 272.165C227.067 275.275 235.397 277.185 243.467 278.005L245.107 278.175C250.397 278.715 255.867 279.285 260.987 278.275C265.707 277.335 269.637 274.625 273.797 271.765C275.637 270.495 277.547 269.185 279.517 268.055C285.987 264.335 293.407 261.185 301.547 258.685C316.507 254.105 332.587 252.595 349.337 254.185C350.127 254.265 350.707 254.965 350.627 255.755C350.557 256.545 349.877 257.105 349.057 257.045C332.677 255.465 316.977 256.955 302.387 261.435C294.447 263.865 287.237 266.935 280.947 270.545C279.077 271.615 277.227 272.895 275.427 274.125C271.207 277.025 266.847 280.025 261.547 281.085C259.267 281.555 256.957 281.715 254.647 281.715Z" fill="#BA9AFF"/>
</g>
<g opacity="0.29">
<path opacity="0.29" d="M211.456 325.485C206.916 325.485 202.366 324.715 199.286 323.185C158.746 302.915 105.316 282.075 51.4662 300.965C50.7162 301.235 49.8961 300.835 49.6361 300.085C49.3761 299.335 49.7663 298.515 50.5163 298.255C105.386 279.015 159.536 300.095 200.576 320.615C205.956 323.305 216.916 323.305 222.286 320.615C241.076 312.265 260.006 311.365 278.306 310.495C285.556 310.145 293.046 309.795 300.396 308.975C317.236 308.965 330.056 305.035 339.736 296.935C340.346 296.425 341.256 296.515 341.766 297.115C342.276 297.725 342.196 298.635 341.586 299.135C331.356 307.675 317.946 311.835 300.556 311.835C293.276 312.655 285.736 313.015 278.446 313.355C260.406 314.215 241.746 315.105 223.516 323.205C220.496 324.725 215.986 325.485 211.456 325.485Z" fill="#BA9AFF"/>
</g>
<g opacity="0.29">
<path opacity="0.29" d="M79.8062 283.935C76.5662 283.935 73.326 283.805 70.116 283.535C69.326 283.475 68.7362 282.775 68.7962 281.985C68.8662 281.195 69.5462 280.615 70.3462 280.675C75.4462 281.095 80.6362 281.175 85.7562 280.905C86.5362 280.845 87.2262 281.475 87.2662 282.265C87.3062 283.055 86.6961 283.735 85.9061 283.775C83.8861 283.885 81.8462 283.935 79.8062 283.935Z" fill="#BA9AFF"/>
</g>
<g opacity="0.29">
<path opacity="0.29" d="M120.317 285.415C120.207 285.415 120.106 285.405 119.996 285.375C116.346 284.535 112.597 284.095 108.847 284.045C108.057 284.035 107.416 283.385 107.426 282.595C107.436 281.805 108.116 281.065 108.876 281.175C112.826 281.215 116.786 281.685 120.636 282.575C121.406 282.755 121.896 283.525 121.716 284.295C121.566 284.965 120.977 285.415 120.317 285.415Z" fill="#BA9AFF"/>
</g>
<g opacity="0.29">
<path opacity="0.29" d="M169.146 296.105C164.646 296.105 160.147 294.425 156.797 291.415C156.207 290.885 156.156 289.975 156.686 289.385C157.216 288.795 158.126 288.745 158.716 289.275C161.996 292.225 166.566 293.655 170.966 293.125C171.776 293.015 172.467 293.585 172.567 294.375C172.667 295.165 172.107 295.875 171.317 295.975C170.597 296.065 169.866 296.105 169.146 296.105Z" fill="#BA9AFF"/>
</g>
<g opacity="0.29">
<path opacity="0.29" d="M202.276 310.365C202.266 310.365 202.266 310.365 202.256 310.365C196.416 310.285 190.676 307.015 187.646 302.025C187.236 301.345 187.446 300.465 188.126 300.055C188.806 299.645 189.686 299.855 190.106 300.535C192.636 304.705 197.426 307.435 202.296 307.495C203.086 307.505 203.726 308.155 203.716 308.955C203.706 309.725 203.066 310.365 202.276 310.365Z" fill="#BA9AFF"/>
</g>
<g opacity="0.29">
<path opacity="0.29" d="M225.456 315.005C222.946 315.005 220.436 314.375 218.266 313.145C217.576 312.755 217.336 311.875 217.726 311.185C218.116 310.495 218.996 310.255 219.686 310.645C222.786 312.395 226.736 312.615 230.006 311.215C230.736 310.905 231.586 311.235 231.896 311.965C232.206 312.695 231.866 313.545 231.146 313.855C229.356 314.625 227.406 315.005 225.456 315.005Z" fill="#BA9AFF"/>
</g>
<g opacity="0.29">
<path opacity="0.29" d="M241.816 309.765C241.306 309.765 240.806 309.495 240.546 309.005C240.166 308.305 240.426 307.435 241.126 307.055L247.666 303.535C248.366 303.165 249.236 303.415 249.616 304.115C249.996 304.815 249.736 305.685 249.036 306.065L242.496 309.585C242.276 309.715 242.046 309.765 241.816 309.765Z" fill="#BA9AFF"/>
</g>
<g opacity="0.29">
<path opacity="0.29" d="M262.517 302.655C261.807 302.655 261.187 302.135 261.097 301.405C260.997 300.615 261.547 299.895 262.337 299.795C265.207 299.415 268.117 299.225 271.007 299.225C271.797 299.225 272.447 299.865 272.447 300.655C272.447 301.445 271.807 302.095 271.007 302.095C268.247 302.095 265.457 302.285 262.717 302.645C262.637 302.655 262.577 302.655 262.517 302.655Z" fill="#BA9AFF"/>
</g>
<g opacity="0.29">
<path opacity="0.29" d="M288.946 307.825C288.816 307.825 288.686 307.805 288.556 307.775C286.186 307.115 283.966 306.065 281.956 304.645C281.306 304.195 281.146 303.295 281.606 302.645C282.056 301.995 282.956 301.835 283.606 302.295C285.346 303.515 287.276 304.425 289.336 305.005C290.106 305.215 290.546 306.005 290.336 306.775C290.156 307.405 289.576 307.825 288.946 307.825Z" fill="#BA9AFF"/>
</g>
<g opacity="0.29">
<path opacity="0.29" d="M300.756 306.435C300.106 306.435 299.516 305.985 299.356 305.325C299.176 304.555 299.656 303.775 300.426 303.595L306.576 302.155C307.356 301.985 308.126 302.455 308.306 303.225C308.486 303.995 308.006 304.775 307.236 304.955L301.086 306.395C300.976 306.425 300.866 306.435 300.756 306.435Z" fill="#BA9AFF"/>
</g>
<g opacity="0.29">
<path opacity="0.29" d="M317.756 300.495C317.276 300.495 316.796 300.255 316.526 299.805C316.116 299.125 316.326 298.245 317.006 297.825L323.096 294.095C323.776 293.675 324.656 293.895 325.076 294.575C325.496 295.255 325.276 296.135 324.606 296.555L318.516 300.285C318.266 300.435 318.006 300.495 317.756 300.495Z" fill="#BA9AFF"/>
</g>
<g opacity="0.29">
<path opacity="0.29" d="M330.886 292.915C330.296 292.915 329.746 292.545 329.536 291.965C329.266 291.215 329.666 290.395 330.406 290.125L336.156 288.075C336.896 287.795 337.726 288.195 337.996 288.945C338.266 289.695 337.866 290.515 337.126 290.785L331.376 292.835C331.206 292.885 331.046 292.915 330.886 292.915Z" fill="#BA9AFF"/>
</g>
<g opacity="0.29">
<path opacity="0.29" d="M245.126 248.925C243.176 248.925 241.306 248.725 239.536 248.315C234.976 247.275 230.416 244.775 225.596 240.675C211.216 228.435 202.936 209.875 203.456 190.995C203.476 190.205 204.196 189.605 204.936 189.595C205.726 189.615 206.356 190.275 206.336 191.075C205.846 208.815 213.946 226.985 227.466 238.485C231.926 242.285 236.086 244.585 240.186 245.515C243.146 246.185 246.416 246.235 249.916 245.625C259.256 244.015 268.436 237.925 275.086 228.915C280.446 221.655 284.446 212.535 287.656 200.225C287.856 199.455 288.646 198.985 289.406 199.195C290.176 199.395 290.636 200.185 290.436 200.945C287.126 213.625 282.986 223.045 277.396 230.615C270.306 240.215 260.466 246.725 250.406 248.455C248.576 248.765 246.826 248.925 245.126 248.925Z" fill="#BA9AFF"/>
</g>
<g opacity="0.29">
<path opacity="0.29" d="M207.726 203.645C207.386 203.645 207.046 203.525 206.776 203.285C206.176 202.755 206.126 201.855 206.656 201.255C208.986 198.615 211.016 195.705 212.676 192.595C213.056 191.895 213.926 191.625 214.626 192.005C215.326 192.375 215.586 193.245 215.216 193.955C213.446 197.255 211.296 200.355 208.816 203.155C208.526 203.485 208.126 203.645 207.726 203.645Z" fill="#BA9AFF"/>
</g>
<g opacity="0.29">
<path opacity="0.29" d="M213.056 204.995C212.536 204.995 212.026 204.705 211.776 204.205L207.436 195.625C207.126 195.485 206.846 195.245 206.696 194.955C206.446 194.495 206.496 193.785 206.776 193.345C207.056 192.905 207.626 192.565 208.186 192.615C208.536 192.625 209.226 192.785 209.686 193.675L214.347 202.905C214.707 203.615 214.416 204.475 213.716 204.835C213.496 204.945 213.276 204.995 213.056 204.995Z" fill="#BA9AFF"/>
</g>
<g opacity="0.29">
<path opacity="0.29" d="M211.077 217.825C210.877 217.825 210.686 217.785 210.496 217.705C209.766 217.385 209.446 216.535 209.766 215.805C210.706 213.685 211.866 211.645 213.206 209.745C213.666 209.095 214.556 208.945 215.206 209.395C215.856 209.855 216.016 210.745 215.556 211.395C214.326 213.145 213.266 215.015 212.396 216.965C212.156 217.515 211.637 217.825 211.077 217.825Z" fill="#BA9AFF"/>
</g>
<g opacity="0.29">
<path opacity="0.29" d="M215.147 218.505C214.707 218.505 214.267 218.295 213.987 217.915C212.017 215.225 210.437 212.275 209.277 209.155C208.997 208.415 209.377 207.585 210.127 207.305C210.867 207.025 211.697 207.405 211.977 208.155C213.047 211.035 214.507 213.745 216.307 216.225C216.777 216.865 216.637 217.765 215.997 218.235C215.737 218.415 215.447 218.505 215.147 218.505Z" fill="#BA9AFF"/>
</g>
<g opacity="0.29">
<path opacity="0.29" d="M216.877 229.355C216.687 229.355 216.497 229.315 216.307 229.235C215.577 228.915 215.247 228.065 215.557 227.345L217.737 222.335C218.047 221.605 218.907 221.275 219.627 221.585C220.357 221.905 220.687 222.745 220.377 223.475L218.197 228.485C217.957 229.035 217.427 229.355 216.877 229.355Z" fill="#BA9AFF"/>
</g>
<g opacity="0.29">
<path opacity="0.29" d="M220.877 230.035C220.507 230.035 220.147 229.895 219.867 229.615C217.627 227.385 215.697 224.865 214.107 222.135C213.677 221.385 213.607 220.685 213.917 220.055C214.307 219.265 215.237 218.905 216.077 219.205L217.277 219.625L217.137 221.075C217.107 221.195 217.077 221.295 217.027 221.405C218.427 223.675 220.057 225.735 221.907 227.585C222.467 228.145 222.467 229.055 221.907 229.615C221.617 229.895 221.247 230.035 220.877 230.035Z" fill="#BA9AFF"/>
</g>
<g opacity="0.29">
<path opacity="0.29" d="M221.916 236.285C221.136 236.285 220.496 235.665 220.476 234.875C220.456 234.085 221.086 233.425 221.886 233.405L234.406 233.145C235.216 233.215 235.856 233.755 235.876 234.555C235.896 235.345 235.266 236.005 234.466 236.025L221.946 236.285C221.936 236.285 221.926 236.285 221.916 236.285Z" fill="#BA9AFF"/>
</g>
<g opacity="0.29">
<path opacity="0.29" d="M227.577 243.515C226.877 243.515 226.267 243.005 226.157 242.295L224.317 230.525C224.197 229.745 224.727 229.005 225.517 228.885C226.297 228.765 227.037 229.305 227.157 230.085L228.997 241.855C229.117 242.635 228.587 243.375 227.797 243.495C227.727 243.515 227.647 243.515 227.577 243.515Z" fill="#BA9AFF"/>
</g>
<g opacity="0.29">
<path opacity="0.29" d="M233.407 246.145C232.697 246.145 232.087 245.625 231.987 244.905C231.877 244.115 232.427 243.395 233.207 243.285C236.827 242.775 240.337 241.725 243.657 240.165C244.377 239.825 245.237 240.135 245.567 240.855C245.907 241.575 245.597 242.435 244.877 242.765C241.297 244.455 237.507 245.585 233.597 246.125C233.537 246.145 233.467 246.145 233.407 246.145Z" fill="#BA9AFF"/>
</g>
<g opacity="0.29">
<path opacity="0.29" d="M242.797 247.715C242.427 247.715 242.057 247.575 241.777 247.295C239.467 244.985 237.316 242.485 235.396 239.855C234.926 239.215 235.066 238.315 235.706 237.845C236.346 237.375 237.246 237.515 237.716 238.155C239.556 240.665 241.607 243.055 243.817 245.265C244.377 245.825 244.377 246.735 243.817 247.295C243.537 247.575 243.167 247.715 242.797 247.715Z" fill="#BA9AFF"/>
</g>
<g opacity="0.29">
<path opacity="0.29" d="M249.996 245.575C249.656 245.575 249.306 245.455 249.036 245.205C248.446 244.675 248.396 243.765 248.926 243.175L254.366 237.105C254.896 236.525 255.806 236.465 256.396 236.995C256.986 237.525 257.036 238.435 256.506 239.025L251.066 245.095C250.776 245.415 250.386 245.575 249.996 245.575Z" fill="#BA9AFF"/>
</g>
<g opacity="0.29">
<path opacity="0.29" d="M258.016 244.495C257.846 244.495 257.666 244.465 257.506 244.395C254.956 243.415 252.636 241.985 250.616 240.135C250.026 239.595 249.496 238.585 249.726 237.635C249.886 236.985 250.376 236.485 251.026 236.305C251.786 236.095 252.586 236.545 252.786 237.315C252.866 237.605 252.846 237.905 252.756 238.165C254.466 239.705 256.446 240.905 258.526 241.705C259.266 241.985 259.636 242.815 259.356 243.565C259.136 244.145 258.596 244.495 258.016 244.495Z" fill="#BA9AFF"/>
</g>
<g opacity="0.29">
<path opacity="0.29" d="M265.217 240.515C264.577 240.515 263.987 240.085 263.827 239.435L263.437 237.895L266.357 233.785C266.817 233.135 267.707 232.995 268.357 233.445C269.007 233.905 269.157 234.805 268.697 235.445L266.547 238.475L266.607 238.735C266.807 239.505 266.337 240.285 265.567 240.485C265.457 240.505 265.337 240.515 265.217 240.515Z" fill="#BA9AFF"/>
</g>
<g opacity="0.29">
<path opacity="0.29" d="M278.847 223.925C278.067 223.925 277.426 223.295 277.406 222.515C277.366 220.425 278.367 218.335 280.027 217.065C280.657 216.575 281.567 216.695 282.047 217.335C282.527 217.965 282.407 218.865 281.777 219.345C280.827 220.075 280.257 221.265 280.277 222.455C280.297 223.245 279.666 223.905 278.866 223.925C278.856 223.925 278.847 223.925 278.847 223.925Z" fill="#BA9AFF"/>
</g>
<g opacity="0.29">
<path opacity="0.29" d="M283.097 210.685C282.887 210.685 282.667 210.635 282.467 210.535C281.757 210.185 281.457 209.325 281.807 208.605L284.277 203.575C284.627 202.865 285.486 202.575 286.196 202.915C286.906 203.265 287.207 204.125 286.857 204.845L284.386 209.875C284.146 210.385 283.637 210.685 283.097 210.685Z" fill="#BA9AFF"/>
</g>
<g opacity="0.29">
<path opacity="0.29" d="M286.606 202.305C286.246 202.305 285.886 202.175 285.616 201.905C285.046 201.355 285.026 200.445 285.576 199.875L286.236 199.185C286.786 198.605 287.696 198.585 288.266 199.145C288.836 199.695 288.856 200.605 288.306 201.175L287.646 201.865C287.366 202.155 286.986 202.305 286.606 202.305Z" fill="#BA9AFF"/>
</g>
<g opacity="0.29">
<path opacity="0.29" d="M93.9666 241.175C93.2966 241.175 92.6967 240.705 92.5567 240.025C92.3967 239.245 92.9066 238.485 93.6866 238.335C97.4266 237.585 101.047 236.345 104.467 234.655C105.177 234.295 106.037 234.595 106.397 235.305C106.747 236.015 106.457 236.885 105.747 237.235C102.107 239.035 98.2467 240.355 94.2567 241.155C94.1567 241.175 94.0566 241.175 93.9666 241.175Z" fill="#BA9AFF"/>
</g>
<g opacity="0.29">
<path opacity="0.29" d="M120.707 237.805C120.007 237.805 119.387 237.285 119.287 236.565C119.177 235.775 119.717 235.055 120.507 234.935C123.517 234.505 126.577 234.395 129.607 234.615C130.397 234.675 130.997 235.365 130.937 236.155C130.877 236.945 130.177 237.575 129.397 237.485C126.577 237.275 123.717 237.385 120.907 237.785C120.837 237.795 120.777 237.805 120.707 237.805Z" fill="#BA9AFF"/>
</g>
<g opacity="0.29">
<path opacity="0.29" d="M143.796 239.965C143.266 239.965 142.756 239.675 142.506 239.165C142.156 238.455 142.446 237.585 143.156 237.235C145.216 236.215 147.666 235.985 149.886 236.615C150.646 236.835 151.096 237.625 150.876 238.385C150.656 239.145 149.856 239.595 149.096 239.375C147.566 238.945 145.856 239.095 144.426 239.805C144.226 239.925 144.006 239.965 143.796 239.965Z" fill="#BA9AFF"/>
</g>
<g opacity="0.29">
<path opacity="0.29" d="M165.036 243.915C164.826 243.915 164.606 243.865 164.406 243.765L159.646 241.435C158.936 241.085 158.636 240.225 158.986 239.515C159.336 238.805 160.196 238.515 160.906 238.855L165.666 241.185C166.376 241.535 166.676 242.395 166.326 243.115C166.076 243.625 165.566 243.915 165.036 243.915Z" fill="#BA9AFF"/>
</g>
<g opacity="0.29">
<path opacity="0.29" d="M193.367 258.205C192.967 258.205 192.577 258.045 192.287 257.725C190.507 255.715 188.277 254.045 185.837 252.905C184.907 252.465 183.927 252.085 182.947 251.705C179.847 250.495 176.647 249.235 174.677 246.315C174.237 245.655 174.407 244.765 175.067 244.315C175.727 243.865 176.617 244.045 177.057 244.705C178.517 246.885 181.177 247.925 183.987 249.025C185.027 249.435 186.067 249.835 187.057 250.305C189.837 251.615 192.387 253.525 194.427 255.815C194.957 256.405 194.897 257.315 194.307 257.845C194.047 258.085 193.707 258.205 193.367 258.205Z" fill="#BA9AFF"/>
</g>
<g opacity="0.29">
<path opacity="0.29" d="M206.696 265.815C206.626 265.815 206.556 265.805 206.486 265.795C203.806 265.395 201.446 263.395 200.616 260.815C200.376 260.055 200.786 259.255 201.546 259.005C202.306 258.775 203.117 259.175 203.357 259.935C203.847 261.475 205.306 262.715 206.906 262.955C207.686 263.075 208.236 263.805 208.116 264.585C208.006 265.305 207.396 265.815 206.696 265.815Z" fill="#BA9AFF"/>
</g>
<g opacity="0.29">
<path opacity="0.29" d="M217.557 270.745C215.477 270.745 213.417 270.025 211.797 268.695C211.187 268.195 211.097 267.285 211.597 266.675C212.097 266.065 213.007 265.965 213.617 266.475C215.047 267.645 217.057 268.135 218.867 267.725C219.657 267.555 220.417 268.035 220.587 268.815C220.757 269.585 220.277 270.355 219.497 270.535C218.857 270.675 218.207 270.745 217.557 270.745Z" fill="#BA9AFF"/>
</g>
<g opacity="0.29">
<path opacity="0.29" d="M232.616 272.045C231.016 272.045 229.416 271.965 227.836 271.795C227.046 271.715 226.476 271.005 226.556 270.215C226.636 269.425 227.366 268.855 228.136 268.935C230.526 269.185 232.956 269.235 235.356 269.085C236.176 269.025 236.836 269.635 236.886 270.425C236.936 271.215 236.336 271.905 235.546 271.955C234.566 272.015 233.596 272.045 232.616 272.045Z" fill="#BA9AFF"/>
</g>
<g opacity="0.29">
<path opacity="0.29" d="M245.946 272.055C245.206 272.055 244.576 271.485 244.516 270.735C244.456 269.945 245.046 269.245 245.836 269.185L251.246 268.745C252.036 268.685 252.726 269.265 252.796 270.065C252.856 270.855 252.266 271.555 251.476 271.615L246.076 272.055C246.026 272.055 245.986 272.055 245.946 272.055Z" fill="#BA9AFF"/>
</g>
<g opacity="0.29">
<path opacity="0.29" d="M259.786 270.895C259.216 270.895 258.686 270.555 258.456 269.995C258.156 269.255 258.506 268.425 259.246 268.125L263.327 266.465C264.057 266.165 264.906 266.515 265.196 267.255C265.496 267.995 265.146 268.835 264.406 269.125L260.327 270.785C260.157 270.855 259.966 270.895 259.786 270.895Z" fill="#BA9AFF"/>
</g>
<g opacity="0.29">
<path opacity="0.29" d="M272.016 265.565C271.686 265.565 271.346 265.445 271.076 265.215C270.476 264.695 270.406 263.785 270.926 263.185C272.406 261.475 274.066 259.915 275.876 258.565C276.506 258.085 277.416 258.215 277.886 258.845C278.366 259.485 278.236 260.385 277.596 260.855C275.956 262.095 274.436 263.505 273.096 265.065C272.816 265.395 272.416 265.565 272.016 265.565Z" fill="#BA9AFF"/>
</g>
<g opacity="0.29">
<path opacity="0.29" d="M285.867 257.075C285.497 257.075 285.127 256.935 284.847 256.655C284.287 256.095 284.287 255.185 284.847 254.625C286.717 252.765 289.177 251.545 291.787 251.205C292.577 251.095 293.297 251.655 293.397 252.445C293.497 253.235 292.947 253.955 292.157 254.055C290.167 254.315 288.287 255.235 286.867 256.655C286.597 256.935 286.237 257.075 285.867 257.075Z" fill="#BA9AFF"/>
</g>
<g opacity="0.29">
<path opacity="0.29" d="M300.796 252.725C300.296 252.725 299.816 252.465 299.546 252.005C299.146 251.315 299.386 250.435 300.076 250.045C302.076 248.885 304.216 247.935 306.426 247.205C307.186 246.945 307.996 247.365 308.246 248.115C308.496 248.865 308.086 249.685 307.336 249.935C305.306 250.605 303.356 251.485 301.526 252.535C301.286 252.665 301.046 252.725 300.796 252.725Z" fill="#BA9AFF"/>
</g>
<g opacity="0.29">
<path opacity="0.29" d="M319.056 250.325H314.316C313.526 250.325 312.876 249.685 312.876 248.885C312.876 248.095 313.516 247.445 314.316 247.445H319.056C319.846 247.445 320.496 248.085 320.496 248.885C320.496 249.685 319.846 250.325 319.056 250.325Z" fill="#BA9AFF"/>
</g>
<g opacity="0.29">
<path opacity="0.29" d="M332.276 250.615C332.116 250.615 331.946 250.585 331.786 250.525C331.046 250.255 330.236 250.185 329.466 250.315C328.686 250.465 327.946 249.935 327.806 249.145C327.666 248.365 328.196 247.615 328.976 247.485C330.246 247.265 331.556 247.375 332.766 247.825C333.516 248.095 333.896 248.915 333.626 249.665C333.416 250.255 332.856 250.615 332.276 250.615Z" fill="#BA9AFF"/>
</g>
<g opacity="0.29">
<path opacity="0.29" d="M340.126 252.575C339.836 252.575 339.546 252.565 339.256 252.545C338.466 252.485 337.866 251.805 337.916 251.015C337.976 250.225 338.656 249.645 339.446 249.675C340.826 249.775 342.256 249.575 343.556 249.095C344.306 248.825 345.126 249.205 345.396 249.955C345.666 250.705 345.286 251.525 344.536 251.795C343.146 252.315 341.626 252.575 340.126 252.575Z" fill="#BA9AFF"/>
</g>
<g opacity="0.29">
<path opacity="0.29" d="M227.036 355.775C224.756 355.775 222.466 355.645 220.186 355.225C216.226 354.495 212.526 352.935 208.946 351.435L184.786 341.265C178.436 338.595 171.876 335.825 164.956 335.575C164.166 335.545 163.546 334.875 163.576 334.085C163.606 333.295 164.276 332.695 165.066 332.695C172.516 332.965 179.626 335.965 185.906 338.605L210.066 348.775C213.506 350.225 217.056 351.715 220.706 352.385C224.636 353.105 228.776 352.895 232.766 352.695C246.276 352.005 260.246 351.295 273.336 347.295C275.666 346.585 277.986 345.765 280.296 344.945C286.286 342.835 292.476 340.645 298.996 340.305C299.756 340.205 300.466 340.865 300.506 341.665C300.546 342.455 299.936 343.135 299.146 343.175C293.046 343.485 287.046 345.605 281.256 347.655C278.906 348.485 276.546 349.315 274.176 350.045C260.746 354.145 246.596 354.865 232.916 355.565C230.986 355.665 229.016 355.775 227.036 355.775Z" fill="#BA9AFF"/>
</g>
</g>
<path d="M513.386 407.004C516.716 401.174 517.186 395.995 517.186 395.995C516.226 394.545 510.907 392.975 509.087 392.095C505.577 390.405 502.077 388.715 498.567 387.035C491.827 383.805 485.087 380.585 478.317 377.435C464.797 371.135 451.137 365.075 437.257 359.605C425.317 354.905 411.886 351.725 401.236 344.345C392.416 338.235 385.476 329.895 380.166 320.645C371.316 305.235 366.707 287.814 362.087 270.794C361.397 268.274 351.917 234.575 349.337 234.605C335.627 234.775 333.147 253.874 330.027 263.904C317.107 305.414 331.046 348.245 341.416 388.665C342.236 391.865 343.076 395.064 343.896 398.274C348.416 416.084 353.876 413.825 371.466 417.705C389.056 421.595 517.176 427.424 517.176 427.424C517.176 427.424 510.056 412.834 513.386 407.004Z" fill="url(#paint10_linear)"/>
<path d="M519.247 422.465C527.657 421.875 536.127 422.245 544.467 423.595C550.357 424.545 556.317 425.975 562.207 424.995C566.807 424.235 571.217 422.015 575.867 422.035C579.357 422.055 582.767 423.335 586.257 423.405C587.207 423.425 588.357 423.185 588.667 422.205C589.037 421.025 587.867 419.995 586.837 419.445C581.457 416.595 575.407 415.295 569.437 415.705C569.587 414.415 571.017 413.905 572.187 413.715C577.747 412.815 583.427 412.765 588.997 413.565C597.547 414.795 606.007 418.005 614.577 416.925C614.937 415.885 613.877 414.955 612.977 414.445C601.407 407.925 588.967 403.525 576.587 399.145C572.267 397.615 567.867 396.075 563.327 395.965C556.377 395.795 549.767 398.965 543.077 401.035C540.697 401.775 538.227 402.375 535.777 402.015C533.357 401.655 531.127 400.385 528.747 399.735C524.687 398.625 520.127 399.305 516.527 396.965C515.917 396.565 515.317 396.075 514.607 396.045C513.107 395.975 512.247 397.895 511.907 399.505C510.057 408.285 511.807 417.895 516.587 425.215" fill="url(#paint11_linear)"/>
<path d="M273.166 430.065C281.956 429.445 290.806 429.835 299.526 431.245C305.686 432.235 311.917 433.735 318.067 432.715C322.877 431.915 327.477 429.605 332.347 429.625C335.997 429.645 339.556 430.985 343.206 431.055C344.196 431.075 345.406 430.825 345.726 429.805C346.116 428.575 344.887 427.495 343.817 426.925C338.197 423.945 331.866 422.595 325.636 423.025C325.786 421.675 327.286 421.135 328.516 420.945C334.326 420.005 340.257 419.955 346.087 420.795C355.017 422.075 363.867 425.435 372.817 424.305C373.187 423.215 372.086 422.245 371.146 421.715C359.056 414.905 346.056 410.295 333.116 405.725C328.596 404.125 324.006 402.515 319.256 402.395C311.986 402.215 305.087 405.525 298.097 407.695C295.617 408.465 293.026 409.095 290.466 408.725C287.936 408.355 274.117 405.895 270.357 403.445C269.727 403.035 269.087 402.515 268.347 402.485C266.777 402.415 265.876 404.415 265.526 406.105C263.596 415.275 265.416 425.325 270.416 432.975" fill="url(#paint12_linear)"/>
<path d="M153.367 265.114C153.367 265.114 140.867 305.184 140.407 326.314C139.947 347.444 140.407 350.174 140.407 350.174C140.407 350.174 209.627 372.365 231.197 379.665C252.767 386.965 275.187 394.404 275.187 394.404C275.187 394.404 264.357 399.605 266.437 414.095C268.517 428.585 275.107 433.265 275.107 433.265C275.107 433.265 263.727 435.564 200.437 430.214C137.147 424.864 23.2766 416.574 6.41661 401.214C-10.4434 385.854 8.70676 363.624 34.3168 319.484C59.9368 275.344 99.2267 192.475 121.227 188.435C143.227 184.395 147.977 185.254 174.507 186.464C201.027 187.674 153.367 265.114 153.367 265.114Z" fill="url(#paint13_linear)"/>
<path d="M139.817 349.174C139.027 349.174 138.387 348.545 138.377 347.745C138.187 324.895 142.037 302.424 149.827 280.944C150.097 280.194 150.917 279.814 151.667 280.084C152.417 280.354 152.797 281.174 152.527 281.924C144.847 303.074 141.057 325.214 141.247 347.714C141.257 348.504 140.617 349.154 139.827 349.164C139.817 349.174 139.817 349.174 139.817 349.174Z" fill="#BA9AFF"/>
<path d="M259.007 390.745C258.857 390.745 258.697 390.715 258.547 390.665L164.916 358.984C159.296 357.084 153.496 355.115 147.666 353.545C141.276 351.815 134.647 350.494 128.237 349.214L91.0766 341.815C90.2966 341.665 89.7965 340.905 89.9465 340.125C90.1065 339.345 90.8464 338.835 91.6364 338.995L128.737 346.384C135.257 347.684 141.936 349.014 148.416 350.774C154.326 352.374 160.177 354.355 165.837 356.265L259.466 387.935C260.216 388.195 260.626 389.004 260.366 389.754C260.166 390.364 259.607 390.745 259.007 390.745Z" fill="#BA9AFF"/>
<defs>
<linearGradient id="paint0_linear" x1="250.579" y1="242.193" x2="206.072" y2="161.55" gradientUnits="userSpaceOnUse">
<stop stop-color="#FFCFCB"/>
<stop offset="1" stop-color="#D77E8E"/>
</linearGradient>
<linearGradient id="paint1_linear" x1="191.405" y1="152.405" x2="217.588" y2="152.405" gradientUnits="userSpaceOnUse">
<stop stop-color="#FFCFCB"/>
<stop offset="1" stop-color="#D77E8E"/>
</linearGradient>
<linearGradient id="paint2_linear" x1="143.147" y1="7.80672" x2="206.297" y2="65.5977" gradientUnits="userSpaceOnUse">
<stop stop-color="#FF7A46"/>
<stop offset="1" stop-color="#FF5946"/>
</linearGradient>
<linearGradient id="paint3_linear" x1="458.674" y1="900.624" x2="456.62" y2="930.747" gradientUnits="userSpaceOnUse">
<stop stop-color="#FFCFCB"/>
<stop offset="1" stop-color="#D77E8E"/>
</linearGradient>
<linearGradient id="paint4_linear" x1="507.163" y1="669.714" x2="603.361" y2="681.615" gradientUnits="userSpaceOnUse">
<stop stop-color="#3958D7"/>
<stop offset="0.9851" stop-color="#5771DD"/>
</linearGradient>
<linearGradient id="paint5_linear" x1="283.275" y1="893.523" x2="281.22" y2="923.659" gradientUnits="userSpaceOnUse">
<stop stop-color="#FFCFCB"/>
<stop offset="1" stop-color="#D77E8E"/>
</linearGradient>
<linearGradient id="paint6_linear" x1="293.526" y1="582.238" x2="376.863" y2="508.464" gradientUnits="userSpaceOnUse">
<stop stop-color="#3958D7"/>
<stop offset="0.9851" stop-color="#5771DD"/>
</linearGradient>
<linearGradient id="paint7_linear" x1="428.933" y1="912.625" x2="544.073" y2="943.167" gradientUnits="userSpaceOnUse">
<stop stop-color="#FF7A46"/>
<stop offset="1" stop-color="#FF5946"/>
</linearGradient>
<linearGradient id="paint8_linear" x1="255.91" y1="904.989" x2="371.05" y2="935.531" gradientUnits="userSpaceOnUse">
<stop stop-color="#FF7A46"/>
<stop offset="1" stop-color="#FF5946"/>
</linearGradient>
<linearGradient id="paint9_linear" x1="140.084" y1="229.957" x2="311.829" y2="393.556" gradientUnits="userSpaceOnUse">
<stop stop-color="#934DE6"/>
<stop offset="1" stop-color="#6229CE"/>
</linearGradient>
<linearGradient id="paint10_linear" x1="478.245" y1="360.612" x2="385.022" y2="333.824" gradientUnits="userSpaceOnUse">
<stop stop-color="#934DE6"/>
<stop offset="1" stop-color="#6229CE"/>
</linearGradient>
<linearGradient id="paint11_linear" x1="558.838" y1="411.101" x2="522.002" y2="359.401" gradientUnits="userSpaceOnUse">
<stop stop-color="#FFCFCB"/>
<stop offset="1" stop-color="#D77E8E"/>
</linearGradient>
<linearGradient id="paint12_linear" x1="314.544" y1="418.18" x2="276.048" y2="364.15" gradientUnits="userSpaceOnUse">
<stop stop-color="#FFCFCB"/>
<stop offset="1" stop-color="#D77E8E"/>
</linearGradient>
<linearGradient id="paint13_linear" x1="175.906" y1="221.408" x2="137.341" y2="410.214" gradientUnits="userSpaceOnUse">
<stop stop-color="#934DE6"/>
<stop offset="1" stop-color="#6229CE"/>
</linearGradient>
</defs>
</svg>
